<?xml version="1.0" standalone="no"?>
<!DOCTYPE svg PUBLIC "-//W3C//DTD SVG 1.1//EN" "http://www.w3.org/Graphics/SVG/1.1/DTD/svg11.dtd" >
<svg xmlns="http://www.w3.org/2000/svg">
<metadata>
<json>
<![CDATA[
{
	"fontFamily": "icomoon-the7-photo-32x32",
	"majorVersion": 1,
	"minorVersion": 0,
	"version": "Version 1.0",
	"fontId": "icomoon-the7-photo-32x32",
	"psName": "icomoon-the7-photo-32x32",
	"subFamily": "Regular",
	"fullName": "icomoon-the7-photo-32x32",
	"description": "Font generated by IcoMoon."
}
]]>
</json>
</metadata>
<defs>
<font id="icomoon-the7-photo-32x32" horiz-adv-x="1024">
<font-face units-per-em="1024" ascent="960" descent="-64" />
<missing-glyph horiz-adv-x="1024" />
<glyph unicode="&#x20;" horiz-adv-x="512" d="" />
<glyph unicode="&#xe900;" glyph-name="im-hover-000" data-tags="im-hover-000" d="M576 960c-247.136 0-448.128-200.928-448-448 0-100.512 31.296-189.824 87.36-264.64l-215.36-215.36 97.984-96 213.952 214.944c74.784-56.064 163.584-86.944 264.064-86.944 247.264 0 448.128 200.992 448 448 0 247.072-200.992 448-448 448zM576 192c-176.448 0-320 143.616-320 320 0 176.448 143.552 320 320 320 176.384 0 320-143.552 320-320 0-176.384-143.616-320-320-320z" />
<glyph unicode="&#xe901;" glyph-name="im-hover-001" data-tags="im-hover-001" d="M576 960c-247.136 0-448.128-200.928-448-448 0-100.512 31.296-189.824 87.36-264.64l-215.36-215.36 97.984-96 213.952 214.944c74.784-56.064 163.584-86.944 264.064-86.944 247.264 0 448.128 200.992 448 448 0 247.072-200.992 448-448 448zM576 192c-176.448 0-320 143.616-320 320 0 176.448 143.552 320 320 320 176.384 0 320-143.552 320-320 0-176.384-143.616-320-320-320zM640 704h-128v-128h-128v-128h128v-128h128v128h128v128h-128z" />
<glyph unicode="&#xe902;" glyph-name="im-hover-003" data-tags="im-hover-003" d="M995.808-35.808c-37.568-37.568-98.432-37.568-136 0l-169.728 169.728c-69.792-44.736-152.288-71.424-241.344-71.424-247.808-0.032-448.736 200.864-448.736 448.736s200.928 448.768 448.736 448.768c247.872 0 448.768-200.896 448.768-448.768 0-89.024-26.72-171.52-71.424-241.344l169.728-169.696c37.568-37.568 37.568-98.432 0-136zM448.736 831.776c-176.992 0-320.544-143.52-320.544-320.576s143.52-320.544 320.544-320.544c177.056 0 320.576 143.488 320.576 320.544s-143.488 320.576-320.576 320.576zM512.864 318.912h-128.224v128.224h-128.192v128.224h128.224v128.192h128.224v-128.224h128.224v-128.224h-128.224v-128.192h-0.032z" />
<glyph unicode="&#xe903;" glyph-name="im-hover-004" data-tags="im-hover-004" d="M735.136 297.728l276.736-277.248c18.304-21.664 15.584-54.080-6.048-72.352-19.328-16.352-47.712-16.16-66.848 0.448l-276.256 276.256c-179.136-139.168-437.184-106.752-576.352 72.416-139.168 179.136-106.752 437.184 72.416 576.352 179.136 139.168 437.152 106.752 576.352-72.416 115.168-148.256 115.168-355.712 0-504v0.544zM410.656 241.28c170.112 0 308.032 137.952 308.032 308.064s-137.952 308.064-308.032 308.064c-170.144 0-308.064-137.952-308.064-308.064s137.92-308.064 308.064-308.064zM461.984 600.672h102.656c28.384 0 51.328-22.976 51.328-51.328 0-28.416-22.976-51.328-51.328-51.328h-102.656v-102.688c0-28.384-22.976-51.328-51.328-51.328s-51.36 22.976-51.36 51.328v102.688h-102.688c-28.352 0-51.328 22.944-51.328 51.328s23.008 51.328 51.328 51.328h102.688v102.688c0 28.352 23.008 51.328 51.36 51.328s51.328-22.976 51.328-51.328v-102.688z" />
<glyph unicode="&#xe904;" glyph-name="im-hover-005" data-tags="im-hover-005" d="M608.704 546.784h-127.872v128.128c0 17.696-14.272 32.064-31.968 32.064-17.664 0-31.968-14.336-31.968-32.064v-128.128h-127.872c-17.664 0-31.968-5.824-31.968-23.52s14.304-40.544 31.968-40.544h127.904v-128.096c0-17.728 14.304-32.032 31.968-32.032 17.696 0 31.968 14.304 31.968 32.032v128.096h127.872c17.696 0 31.968 14.336 31.968 32.032-0.032 17.696-14.304 32.032-32 32.032zM1014.272-8.288l-248.416 244.16c69.248 75.232 111.776 174.688 111.776 284.16 0 234.144-192.864 423.968-430.784 423.968-237.952 0-430.816-189.824-430.816-423.968s192.864-423.968 430.848-423.968c102.784 0 197.056 35.552 271.136 94.688l249.44-245.184c12.928-12.736 33.952-12.736 46.848 0 12.96 12.704 12.96 33.408-0.032 46.144zM446.88 161.28c-201.344 0-364.544 160.64-364.544 358.752s163.2 358.752 364.544 358.752c201.28 0 364.512-160.64 364.512-358.752s-163.232-358.752-364.512-358.752z" />
<glyph unicode="&#xe905;" glyph-name="im-hover-010" data-tags="im-hover-010" d="M1024 480h-480v480h-64v-480h-480v-64h480v-480h64v480h480z" />
<glyph unicode="&#xe906;" glyph-name="im-hover-011" data-tags="im-hover-011" d="M1024 512h-448v448h-128v-448h-448v-128h448v-448h128v448h448z" />
<glyph unicode="&#xe907;" glyph-name="im-hover-012" data-tags="im-hover-012" d="M1024 544h-416v416h-192v-416h-416v-192h416v-416h192v416h416z" />
<glyph unicode="&#xe908;" glyph-name="im-hover-013" data-tags="im-hover-013" d="M896 576h-256v256c0 70.656-57.376 128-128 128-70.72 0-128-57.344-128-128v-256h-256c-70.656 0-128-57.344-128-128 0-70.624 57.344-128 128-128h256v-256c0-70.624 57.28-128 128-128 70.624 0 128 57.376 128 128v256h256c70.624 0 128 57.376 128 128 0 70.656-57.376 128-128 128z" />
<glyph unicode="&#xe909;" glyph-name="im-hover-021" data-tags="im-hover-021" d="M0 960v-1024h1024v1024h-1024zM870.432 381.888h-292.32v-292.32h-132.256v292.32h-292.256v132.256h292.256v292.256h132.256v-292.256h292.32v-132.256z" />
<glyph unicode="&#xe90a;" glyph-name="im-hover-022" data-tags="im-hover-022" d="M967.648 903.648c-37.536 37.568-82.784 56.352-135.648 56.352h-640c-52.896 0-98.112-18.784-135.68-56.352-37.536-37.536-56.32-82.784-56.32-135.648v-640c0-52.864 18.784-98.112 56.32-135.68 37.568-37.536 82.784-56.32 135.68-56.32h640c52.864 0 98.112 18.784 135.648 56.32 37.568 37.568 56.352 82.784 56.352 135.68v640c0 52.864-18.784 98.112-56.352 135.648zM800 416c0-8.672-3.2-16.192-9.504-22.496-6.336-6.304-13.824-9.504-22.528-9.504h-191.968v-191.968c0-8.672-3.2-16.192-9.504-22.496-6.304-6.336-13.824-9.536-22.496-9.536h-64c-8.672 0-16.16 3.2-22.496 9.536-6.336 6.304-9.504 13.792-9.504 22.496v191.968h-192c-8.64 0-16.128 3.2-22.496 9.504-6.336 6.304-9.504 13.824-9.504 22.496v64c0 8.672 3.168 16.16 9.472 22.496 6.368 6.336 13.856 9.504 22.528 9.504h192v192c0 8.672 3.168 16.16 9.504 22.496s13.824 9.504 22.496 9.504h64c8.672 0 16.192-3.168 22.496-9.504s9.504-13.824 9.504-22.496v-192h191.968c8.672 0 16.192-3.168 22.528-9.504 6.304-6.336 9.504-13.824 9.504-22.496v-64z" />
<glyph unicode="&#xe90b;" glyph-name="im-hover-030" data-tags="im-hover-030" d="M512 960c-282.784 0-512-229.248-512-512s229.216-512 512-512c282.752 0 512 229.248 512 512s-229.248 512-512 512zM832 423.52c0-35.328-28.704-41.568-43.168-42.432h-209.984l-0.224-210.848c-0.096-38.88-29.792-42.112-37.632-42.24l-57.728 0.032c-8.608 0.224-38.592 3.488-38.528 42.432l0.192 210.624h-210.56c-38.944 0-42.112 29.664-42.368 37.6v57.696c0.16 8.608 3.456 38.656 42.368 38.656h210.752l0.288 206.112c0.16 9.76 3.36 46.976 41.088 46.912l50.24-0.032c35.52-0.064 41.696-28.8 42.528-43.296l-0.288-209.824h206.080c9.76-0.16 46.944-3.328 46.944-41.024v-50.368z" />
<glyph unicode="&#xe90c;" glyph-name="im-hover-031" data-tags="im-hover-031" d="M512 960c-282.752 0-512-229.248-512-512s229.248-512 512-512 512 229.248 512 512-229.248 512-512 512zM804.576 411.424h-256v-256h-73.152v256h-256v73.12h256v256h73.152v-256h256v-73.12z" />
<glyph unicode="&#xe90d;" glyph-name="im-hover-032" data-tags="im-hover-032" d="M672 512h-96v96c0 35.328-28.672 64-64 64s-64-28.64-64-64v-96h-96c-35.328 0-64-28.64-64-64 0-35.328 28.672-64 64-64h96v-96c0-35.328 28.672-64 64-64s64 28.64 64 64v96h96c35.328 0 64 28.672 64 64s-28.672 64-64 64zM512 960c-282.816 0-512-229.184-512-512s229.184-512 512-512 512 229.184 512 512-229.184 512-512 512zM512 32c-229.376 0-416 186.624-416 416s186.624 416 416 416 416-186.624 416-416-186.624-416-416-416z" />
<glyph unicode="&#xe90e;" glyph-name="im-hover-033" data-tags="im-hover-033" d="M512-64c-136.832 0-265.344 53.344-361.984 150.016s-150.016 225.152-150.016 361.984 53.344 265.344 150.016 361.984 225.152 150.016 361.984 150.016 265.344-53.344 361.984-150.016 150.016-225.152 150.016-361.984-53.344-265.344-150.016-361.984-225.152-150.016-361.984-150.016zM512 816.448c-203.136 0-368.448-165.312-368.448-368.448s165.312-368.448 368.448-368.448 368.448 165.312 368.448 368.448-165.312 368.448-368.448 368.448zM760.8 519.776h-177.024v177.024h-143.552v-177.024h-177.024v-143.552h177.024v-177.024h143.552v177.024h177.024z" />
<glyph unicode="&#xe90f;" glyph-name="im-hover-041" data-tags="im-hover-041" d="M128 448h-128v-512h512v128h-384zM512 960v-128h384v-384h128v512z" />
<glyph unicode="&#xe910;" glyph-name="im-hover-042" data-tags="im-hover-042" d="M192 448h-192v-512h512v192h-320zM512 960v-192h320v-320h192v512z" />
<glyph unicode="&#xe911;" glyph-name="im-hover-043" data-tags="im-hover-043" d="M609.408 959.936l-0.16-89.024 262.752-0.064-782.88-782.848v262.688h-89.12v-414.688h414.624l0.128 88.992-262.688 0.096 782.848 782.848v-262.624h89.088v414.688z" />
<glyph unicode="&#xe912;" glyph-name="im-hover-044" data-tags="im-hover-044" d="M364.48 369.824l-266.592-266.752v158.72c0 26.848-21.952 48.832-48.96 48.832s-48.928-21.984-48.928-48.832v-277.024l3.712-18.464 10.208-15.328 0.416-0.544 0.352-0.416 15.456-10.208 18.784-3.808h276.768c27.008 0 48.928 22.016 48.928 48.992 0 26.88-21.92 48.928-48.928 48.928h-158.56l266.528 266.56c19.136 18.848 19.136 50.048 0 69.12-19.104 19.168-50.144 19.168-69.184 0.224zM659.552 526.208l266.56 266.688v-158.688c0-26.848 21.92-48.864 48.96-48.864 26.976 0 48.896 22.016 48.896 48.864v277.056l-3.68 18.528-10.592 15.872-0.416 0.384-15.424 10.208-18.752 3.744h-276.768c-27.072 0-48.96-22.016-48.96-48.96 0-26.88 21.92-48.96 48.96-48.96h158.592l-266.56-266.592c-19.136-18.816-19.136-50.016 0-69.12 19.040-19.136 50.112-19.136 69.184-0.16z" />
<glyph unicode="&#xe913;" glyph-name="im-hover-045" data-tags="im-hover-045" d="M1024 960v-386.272l-148.576 148.576-210.272-210.304-89.152 89.152 210.272 210.272-148.544 148.576h386.272zM448 294.848l-210.272-210.272 148.544-148.576h-386.272v386.272l148.576-148.576 210.272 210.304 89.152-89.152z" />
</font>
</defs>
</svg>
